<?xml version="1.0" encoding="UTF-8" standalone="no"?>
<svg
   id="blue_copy"
   version="1.1"
   viewBox="0 0 44.281193 44.35283"
   xml:space="preserve"
   sodipodi:docname="Mute.svg"
   width="44.281193"
   height="44.352829"
   inkscape:version="1.2 (dc2aedaf03, 2022-05-15)"
   inkscape:export-filename="..\Icons\Mute icon.png"
   inkscape:export-xdpi="69.374825"
   inkscape:export-ydpi="69.374825"
   xmlns:inkscape="http://www.inkscape.org/namespaces/inkscape"
   xmlns:sodipodi="http://sodipodi.sourceforge.net/DTD/sodipodi-0.dtd"
   xmlns="http://www.w3.org/2000/svg"
   xmlns:svg="http://www.w3.org/2000/svg"><defs
     id="defs12" /><sodipodi:namedview
     id="namedview10"
     pagecolor="#505050"
     bordercolor="#eeeeee"
     borderopacity="1"
     inkscape:pageshadow="0"
     inkscape:pageopacity="0"
     inkscape:pagecheckerboard="0"
     showgrid="false"
     fit-margin-top="0"
     fit-margin-left="0"
     fit-margin-right="0"
     fit-margin-bottom="0"
     inkscape:zoom="10.4"
     inkscape:cx="19.471154"
     inkscape:cy="20.769231"
     inkscape:window-width="1366"
     inkscape:window-height="705"
     inkscape:window-x="-8"
     inkscape:window-y="-8"
     inkscape:window-maximized="1"
     inkscape:current-layer="blue_copy"
     inkscape:showpageshadow="0"
     inkscape:deskcolor="#505050" /><g
     id="Layer_4_copy"
     transform="matrix(-1,0,0,0.88239953,71.633194,-21.943593)"
     style="stroke-width:1.06455319;stroke-dasharray:none"><path
       d="m 31.356,25.677 38.625,22.3 c 1.557,0.899 1.557,3.147 0,4.046 l -38.625,22.3 C 29.799,75.222 27.852,74.098 27.852,72.3 V 27.7 c 0,-1.798 1.946,-2.922 3.504,-2.023 z"
       id="path2"
       style="stroke-width:1.06455319;stroke-dasharray:none" /><path
       d="m 69.981,47.977 -38.625,-22.3 c -0.233,-0.134 -0.474,-0.21 -0.716,-0.259 l 37.341,21.559 c 1.557,0.899 1.557,3.147 0,4.046 l -38.625,22.3 c -0.349,0.201 -0.716,0.288 -1.078,0.301 0.656,0.938 1.961,1.343 3.078,0.699 l 38.625,-22.3 c 1.557,-0.899 1.557,-3.147 0,-4.046 z"
       id="path4"
       style="stroke-width:1.06455319;stroke-dasharray:none" /><path
       d="m 31.356,25.677 38.625,22.3 c 1.557,0.899 1.557,3.147 0,4.046 l -38.625,22.3 C 29.799,75.222 27.852,74.098 27.852,72.3 V 27.7 c 0,-1.798 1.946,-2.922 3.504,-2.023 z"
       style="fill:none;stroke:#000000;stroke-miterlimit:10;stroke-width:1.06455319;stroke-dasharray:none"
       id="path6" /></g><rect
     style="fill:#000000;fill-opacity:1;stroke:#000000;stroke-width:0;stroke-linecap:square;stroke-miterlimit:0;stroke-dasharray:none;paint-order:stroke fill markers"
     id="rect948"
     width="16.996977"
     height="19.253035"
     x="0"
     y="12.573889"
     ry="1.4278117" /><g
     aria-label="X"
     id="text2522"
     style="font-size:42.6667px;line-height:1.25;-inkscape-font-specification:sans-serif;text-align:center;letter-spacing:0px;text-anchor:middle;fill:#ff0000;stroke:#ffffff;stroke-width:1.5;stroke-linejoin:round"><path
       d="M 43.502248,37.686844 H 34.252241 L 27.564736,27.478503 20.752231,37.686844 h -8.83334 L 22.918899,22.061832 12.148058,6.6659874 h 9.229173 l 6.458338,9.6666736 6.645839,-9.6666736 h 8.854173 L 32.50224,21.749332 Z"
       style="font-weight:bold;-inkscape-font-specification:'sans-serif Bold'"
       id="path293" /></g></svg>
