<?xml version="1.0" encoding="UTF-8" standalone="no"?>
<svg
   width="29"
   height="29"
   viewBox="0 0 29 29"
   version="1.1"
   id="svg4"
   sodipodi:docname="ncs-qr.svg"
   inkscape:version="1.2 (dc2aedaf03, 2022-05-15)"
   inkscape:export-filename="ncs-qr.png"
   inkscape:export-xdpi="847.4483"
   inkscape:export-ydpi="847.4483"
   xmlns:inkscape="http://www.inkscape.org/namespaces/inkscape"
   xmlns:sodipodi="http://sodipodi.sourceforge.net/DTD/sodipodi-0.dtd"
   xmlns="http://www.w3.org/2000/svg"
   xmlns:svg="http://www.w3.org/2000/svg">
  <defs
     id="defs8" />
  <sodipodi:namedview
     id="namedview6"
     pagecolor="#505050"
     bordercolor="#eeeeee"
     borderopacity="1"
     inkscape:showpageshadow="0"
     inkscape:pageopacity="0"
     inkscape:pagecheckerboard="0"
     inkscape:deskcolor="#505050"
     showgrid="false"
     inkscape:zoom="7.0344828"
     inkscape:cx="-0.85294118"
     inkscape:cy="19.617647"
     inkscape:window-width="1366"
     inkscape:window-height="705"
     inkscape:window-x="-8"
     inkscape:window-y="-8"
     inkscape:window-maximized="1"
     inkscape:current-layer="svg4" />
  <path
     d="M 0,0 H 1.3809524 V 1.3809524 H 0 Z M 1.3809524,0 H 2.7619048 V 1.3809524 H 1.3809524 Z M 2.7619048,0 H 4.1428571 V 1.3809524 H 2.7619048 Z M 4.1428571,0 H 5.5238095 V 1.3809524 H 4.1428571 Z M 5.5238095,0 H 6.9047619 V 1.3809524 H 5.5238095 Z M 6.9047619,0 H 8.2857143 V 1.3809524 H 6.9047619 Z M 8.2857143,0 H 9.6666667 V 1.3809524 H 8.2857143 Z m 4.1428567,0 h 1.380953 v 1.3809524 h -1.380953 z m 2.761905,0 h 1.380953 v 1.3809524 h -1.380953 z m 4.142857,0 h 1.380953 v 1.3809524 h -1.380953 z m 1.380953,0 h 1.380952 v 1.3809524 h -1.380952 z m 1.380952,0 h 1.380952 v 1.3809524 h -1.380952 z m 1.380952,0 h 1.380953 V 1.3809524 H 23.47619 Z m 1.380953,0 h 1.380952 v 1.3809524 h -1.380952 z m 1.380952,0 h 1.380953 v 1.3809524 h -1.380953 z m 1.380953,0 H 29 V 1.3809524 H 27.619048 Z M 0,1.3809524 H 1.3809524 V 2.7619048 H 0 Z m 8.2857143,0 H 9.6666667 V 2.7619048 H 8.2857143 Z m 2.7619047,0 h 1.380952 v 1.3809524 h -1.380952 z m 1.380952,0 h 1.380953 v 1.3809524 h -1.380953 z m 2.761905,0 h 1.380953 v 1.3809524 h -1.380953 z m 4.142857,0 h 1.380953 v 1.3809524 h -1.380953 z m 8.285715,0 H 29 V 2.7619048 H 27.619048 Z M 0,2.7619048 H 1.3809524 V 4.1428571 H 0 Z m 2.7619048,0 H 4.1428571 V 4.1428571 H 2.7619048 Z m 1.3809523,0 H 5.5238095 V 4.1428571 H 4.1428571 Z m 1.3809524,0 H 6.9047619 V 4.1428571 H 5.5238095 Z m 2.7619048,0 H 9.6666667 V 4.1428571 H 8.2857143 Z m 4.1428567,0 h 1.380953 v 1.3809523 h -1.380953 z m 6.904762,0 h 1.380953 v 1.3809523 h -1.380953 z m 2.761905,0 h 1.380952 v 1.3809523 h -1.380952 z m 1.380952,0 h 1.380953 V 4.1428571 H 23.47619 Z m 1.380953,0 h 1.380952 v 1.3809523 h -1.380952 z m 2.761905,0 H 29 V 4.1428571 H 27.619048 Z M 0,4.1428571 H 1.3809524 V 5.5238095 H 0 Z m 2.7619048,0 H 4.1428571 V 5.5238095 H 2.7619048 Z m 1.3809523,0 H 5.5238095 V 5.5238095 H 4.1428571 Z m 1.3809524,0 H 6.9047619 V 5.5238095 H 5.5238095 Z m 2.7619048,0 H 9.6666667 V 5.5238095 H 8.2857143 Z m 2.7619047,0 h 1.380952 v 1.3809524 h -1.380952 z m 1.380952,0 h 1.380953 v 1.3809524 h -1.380953 z m 2.761905,0 h 1.380953 v 1.3809524 h -1.380953 z m 1.380953,0 h 1.380952 v 1.3809524 h -1.380952 z m 2.761904,0 h 1.380953 v 1.3809524 h -1.380953 z m 2.761905,0 h 1.380952 v 1.3809524 h -1.380952 z m 1.380952,0 h 1.380953 V 5.5238095 H 23.47619 Z m 1.380953,0 h 1.380952 v 1.3809524 h -1.380952 z m 2.761905,0 H 29 V 5.5238095 H 27.619048 Z M 0,5.5238095 H 1.3809524 V 6.9047619 H 0 Z m 2.7619048,0 H 4.1428571 V 6.9047619 H 2.7619048 Z m 1.3809523,0 H 5.5238095 V 6.9047619 H 4.1428571 Z m 1.3809524,0 H 6.9047619 V 6.9047619 H 5.5238095 Z m 2.7619048,0 H 9.6666667 V 6.9047619 H 8.2857143 Z m 5.5238097,0 h 1.380952 v 1.3809524 h -1.380952 z m 1.380952,0 h 1.380953 v 1.3809524 h -1.380953 z m 1.380953,0 h 1.380952 v 1.3809524 h -1.380952 z m 2.761904,0 h 1.380953 v 1.3809524 h -1.380953 z m 2.761905,0 h 1.380952 v 1.3809524 h -1.380952 z m 1.380952,0 h 1.380953 V 6.9047619 H 23.47619 Z m 1.380953,0 h 1.380952 v 1.3809524 h -1.380952 z m 2.761905,0 H 29 V 6.9047619 H 27.619048 Z M 0,6.9047619 H 1.3809524 V 8.2857143 H 0 Z m 8.2857143,0 H 9.6666667 V 8.2857143 H 8.2857143 Z m 2.7619047,0 h 1.380952 v 1.3809524 h -1.380952 z m 1.380952,0 h 1.380953 v 1.3809524 h -1.380953 z m 1.380953,0 h 1.380952 v 1.3809524 h -1.380952 z m 5.523809,0 h 1.380953 v 1.3809524 h -1.380953 z m 8.285715,0 H 29 V 8.2857143 H 27.619048 Z M 0,8.2857143 H 1.3809524 V 9.6666667 H 0 Z m 1.3809524,0 H 2.7619048 V 9.6666667 H 1.3809524 Z m 1.3809524,0 H 4.1428571 V 9.6666667 H 2.7619048 Z m 1.3809523,0 H 5.5238095 V 9.6666667 H 4.1428571 Z m 1.3809524,0 H 6.9047619 V 9.6666667 H 5.5238095 Z m 1.3809524,0 H 8.2857143 V 9.6666667 H 6.9047619 Z m 1.3809524,0 H 9.6666667 V 9.6666667 H 8.2857143 Z m 2.7619047,0 h 1.380952 v 1.3809524 h -1.380952 z m 2.761905,0 h 1.380952 v 1.3809524 h -1.380952 z m 2.761905,0 h 1.380952 v 1.3809524 h -1.380952 z m 2.761904,0 h 1.380953 v 1.3809524 h -1.380953 z m 1.380953,0 h 1.380952 v 1.3809524 h -1.380952 z m 1.380952,0 h 1.380952 v 1.3809524 h -1.380952 z m 1.380952,0 h 1.380953 V 9.6666667 H 23.47619 Z m 1.380953,0 h 1.380952 v 1.3809524 h -1.380952 z m 1.380952,0 h 1.380953 v 1.3809524 h -1.380953 z m 1.380953,0 H 29 V 9.6666667 H 27.619048 Z M 13.809524,9.6666667 h 1.380952 V 11.047619 H 13.809524 Z M 0,11.047619 h 1.3809524 v 1.380952 H 0 Z m 1.3809524,0 h 1.3809524 v 1.380952 H 1.3809524 Z m 1.3809524,0 h 1.3809523 v 1.380952 H 2.7619048 Z m 1.3809523,0 h 1.3809524 v 1.380952 H 4.1428571 Z m 1.3809524,0 h 1.3809524 v 1.380952 H 5.5238095 Z m 2.7619048,0 h 1.3809524 v 1.380952 H 8.2857143 Z m 1.3809524,0 h 1.3809523 v 1.380952 H 9.6666667 Z m 1.3809523,0 h 1.380952 v 1.380952 h -1.380952 z m 1.380952,0 h 1.380953 v 1.380952 h -1.380953 z m 2.761905,0 h 1.380953 v 1.380952 h -1.380953 z m 1.380953,0 h 1.380952 v 1.380952 h -1.380952 z m 1.380952,0 h 1.380952 v 1.380952 h -1.380952 z m 2.761905,0 h 1.380952 v 1.380952 h -1.380952 z m 2.761904,0 h 1.380953 v 1.380952 H 23.47619 Z m 2.761905,0 h 1.380953 v 1.380952 H 26.238095 Z M 2.7619048,12.428571 h 1.3809523 v 1.380953 H 2.7619048 Z m 1.3809523,0 h 1.3809524 v 1.380953 H 4.1428571 Z m 1.3809524,0 h 1.3809524 v 1.380953 H 5.5238095 Z m 1.3809524,0 h 1.3809524 v 1.380953 H 6.9047619 Z m 2.7619048,0 h 1.3809523 v 1.380953 H 9.6666667 Z m 1.3809523,0 h 1.380952 v 1.380953 h -1.380952 z m 9.666667,0 h 1.380952 v 1.380953 h -1.380952 z m 1.380952,0 h 1.380952 v 1.380953 h -1.380952 z m 1.380952,0 h 1.380953 v 1.380953 H 23.47619 Z m 1.380953,0 h 1.380952 v 1.380953 h -1.380952 z m 2.761905,0 H 29 v 1.380953 H 27.619048 Z M 0,13.809524 h 1.3809524 v 1.380952 H 0 Z m 1.3809524,0 h 1.3809524 v 1.380952 H 1.3809524 Z m 6.9047619,0 h 1.3809524 v 1.380952 H 8.2857143 Z m 2.7619047,0 h 1.380952 v 1.380952 h -1.380952 z m 1.380952,0 h 1.380953 v 1.380952 h -1.380953 z m 1.380953,0 h 1.380952 v 1.380952 h -1.380952 z m 1.380952,0 h 1.380953 v 1.380952 h -1.380953 z m 4.142857,0 h 1.380953 v 1.380952 h -1.380953 z m 1.380953,0 h 1.380952 v 1.380952 h -1.380952 z m 1.380952,0 h 1.380952 v 1.380952 h -1.380952 z m 4.142857,0 h 1.380953 v 1.380952 h -1.380953 z m 1.380953,0 H 29 v 1.380952 H 27.619048 Z M 0,15.190476 h 1.3809524 v 1.380953 H 0 Z m 4.1428571,0 h 1.3809524 v 1.380953 H 4.1428571 Z m 2.7619048,0 h 1.3809524 v 1.380953 H 6.9047619 Z m 5.5238091,0 h 1.380953 v 1.380953 h -1.380953 z m 1.380953,0 h 1.380952 v 1.380953 h -1.380952 z m 4.142857,0 h 1.380952 v 1.380953 h -1.380952 z m 1.380952,0 h 1.380953 v 1.380953 h -1.380953 z m 2.761905,0 h 1.380952 v 1.380953 H 22.095238 Z M 1.3809524,16.571429 h 1.3809524 v 1.380952 H 1.3809524 Z m 1.3809524,0 h 1.3809523 v 1.380952 H 2.7619048 Z m 2.7619047,0 h 1.3809524 v 1.380952 H 5.5238095 Z m 2.7619048,0 h 1.3809524 v 1.380952 H 8.2857143 Z m 1.3809524,0 h 1.3809523 v 1.380952 H 9.6666667 Z m 2.7619043,0 h 1.380953 v 1.380952 h -1.380953 z m 4.142858,0 h 1.380952 v 1.380952 h -1.380952 z m 1.380952,0 h 1.380952 v 1.380952 h -1.380952 z m 1.380952,0 h 1.380953 v 1.380952 h -1.380953 z m 1.380953,0 h 1.380952 v 1.380952 h -1.380952 z m 4.142857,0 h 1.380952 v 1.380952 h -1.380952 z m -13.809524,1.380952 h 1.380952 v 1.380952 h -1.380952 z m 4.142857,0 h 1.380953 v 1.380952 h -1.380953 z m 6.904762,0 h 1.380952 v 1.380952 h -1.380952 z m 1.380952,0 h 1.380953 v 1.380952 H 23.47619 Z m 1.380953,0 h 1.380952 v 1.380952 H 24.857143 Z M 0,19.333333 h 1.3809524 v 1.380953 H 0 Z m 1.3809524,0 h 1.3809524 v 1.380953 H 1.3809524 Z m 1.3809524,0 h 1.3809523 v 1.380953 H 2.7619048 Z m 1.3809523,0 h 1.3809524 v 1.380953 H 4.1428571 Z m 1.3809524,0 h 1.3809524 v 1.380953 H 5.5238095 Z m 1.3809524,0 h 1.3809524 v 1.380953 H 6.9047619 Z m 1.3809524,0 h 1.3809524 v 1.380953 H 8.2857143 Z m 2.7619047,0 h 1.380952 v 1.380953 h -1.380952 z m 2.761905,0 h 1.380952 v 1.380953 h -1.380952 z m 2.761905,0 h 1.380952 v 1.380953 h -1.380952 z m 2.761904,0 h 1.380953 v 1.380953 h -1.380953 z m 1.380953,0 h 1.380952 v 1.380953 h -1.380952 z m 2.761904,0 h 1.380953 v 1.380953 H 23.47619 Z m 2.761905,0 h 1.380953 v 1.380953 H 26.238095 Z M 0,20.714286 h 1.3809524 v 1.380952 H 0 Z m 8.2857143,0 h 1.3809524 v 1.380952 H 8.2857143 Z m 6.9047617,0 h 1.380953 v 1.380952 h -1.380953 z m 2.761905,0 h 1.380952 v 1.380952 h -1.380952 z m 1.380952,0 h 1.380953 v 1.380952 h -1.380953 z m 2.761905,0 h 1.380952 v 1.380952 h -1.380952 z m 1.380952,0 h 1.380953 v 1.380952 H 23.47619 Z m 1.380953,0 h 1.380952 v 1.380952 h -1.380952 z m 2.761905,0 H 29 v 1.380952 H 27.619048 Z M 0,22.095238 H 1.3809524 V 23.47619 H 0 Z m 2.7619048,0 H 4.1428571 V 23.47619 H 2.7619048 Z m 1.3809523,0 H 5.5238095 V 23.47619 H 4.1428571 Z m 1.3809524,0 H 6.9047619 V 23.47619 H 5.5238095 Z m 2.7619048,0 H 9.6666667 V 23.47619 H 8.2857143 Z m 2.7619047,0 h 1.380952 v 1.380952 h -1.380952 z m 1.380952,0 h 1.380953 v 1.380952 h -1.380953 z m 2.761905,0 h 1.380953 v 1.380952 h -1.380953 z m 1.380953,0 h 1.380952 v 1.380952 h -1.380952 z m 1.380952,0 h 1.380952 v 1.380952 h -1.380952 z m 1.380952,0 h 1.380953 v 1.380952 h -1.380953 z m 5.52381,0 h 1.380952 v 1.380952 h -1.380952 z m 2.761905,0 H 29 V 23.47619 H 27.619048 Z M 0,23.47619 h 1.3809524 v 1.380953 H 0 Z m 2.7619048,0 h 1.3809523 v 1.380953 H 2.7619048 Z m 1.3809523,0 h 1.3809524 v 1.380953 H 4.1428571 Z m 1.3809524,0 h 1.3809524 v 1.380953 H 5.5238095 Z m 2.7619048,0 h 1.3809524 v 1.380953 H 8.2857143 Z m 2.7619047,0 h 1.380952 v 1.380953 h -1.380952 z m 1.380952,0 h 1.380953 v 1.380953 h -1.380953 z m 2.761905,0 h 1.380953 v 1.380953 h -1.380953 z m 2.761905,0 h 1.380952 v 1.380953 h -1.380952 z m 2.761905,0 h 1.380952 v 1.380953 h -1.380952 z m 2.761904,0 h 1.380953 v 1.380953 H 23.47619 Z m 1.380953,0 h 1.380952 v 1.380953 h -1.380952 z m 1.380952,0 h 1.380953 v 1.380953 H 26.238095 Z M 0,24.857143 h 1.3809524 v 1.380952 H 0 Z m 2.7619048,0 h 1.3809523 v 1.380952 H 2.7619048 Z m 1.3809523,0 h 1.3809524 v 1.380952 H 4.1428571 Z m 1.3809524,0 h 1.3809524 v 1.380952 H 5.5238095 Z m 2.7619048,0 h 1.3809524 v 1.380952 H 8.2857143 Z m 2.7619047,0 h 1.380952 v 1.380952 h -1.380952 z m 1.380952,0 h 1.380953 v 1.380952 h -1.380953 z m 4.142858,0 h 1.380952 v 1.380952 h -1.380952 z m 2.761904,0 h 1.380953 v 1.380952 h -1.380953 z m 1.380953,0 h 1.380952 v 1.380952 h -1.380952 z m 2.761904,0 h 1.380953 v 1.380952 H 23.47619 Z M 0,26.238095 h 1.3809524 v 1.380953 H 0 Z m 8.2857143,0 h 1.3809524 v 1.380953 H 8.2857143 Z m 2.7619047,0 h 1.380952 v 1.380953 h -1.380952 z m 6.904762,0 h 1.380952 v 1.380953 h -1.380952 z m 1.380952,0 h 1.380953 v 1.380953 h -1.380953 z m 2.761905,0 h 1.380952 v 1.380953 h -1.380952 z m 1.380952,0 h 1.380953 v 1.380953 H 23.47619 Z m 1.380953,0 h 1.380952 v 1.380953 h -1.380952 z m 1.380952,0 h 1.380953 v 1.380953 h -1.380953 z m 1.380953,0 H 29 v 1.380953 H 27.619048 Z M 0,27.619048 H 1.3809524 V 29 H 0 Z m 1.3809524,0 H 2.7619048 V 29 H 1.3809524 Z m 1.3809524,0 H 4.1428571 V 29 H 2.7619048 Z m 1.3809523,0 H 5.5238095 V 29 H 4.1428571 Z m 1.3809524,0 H 6.9047619 V 29 H 5.5238095 Z m 1.3809524,0 H 8.2857143 V 29 H 6.9047619 Z m 1.3809524,0 H 9.6666667 V 29 H 8.2857143 Z m 2.7619047,0 h 1.380952 V 29 h -1.380952 z m 1.380952,0 h 1.380953 V 29 h -1.380953 z m 2.761905,0 h 1.380953 V 29 h -1.380953 z m 1.380953,0 h 1.380952 V 29 h -1.380952 z m 2.761904,0 h 1.380953 V 29 h -1.380953 z m 5.52381,0 h 1.380952 V 29 h -1.380952 z m 1.380952,0 h 1.380953 V 29 h -1.380953 z"
     id="path2"
     style="stroke-width:1.38095" />
</svg>
