<?xml version="1.0" encoding="UTF-8" standalone="no"?>
<svg
   id="blue_copy"
   style="enable-background:new 0 0 100 100;"
   version="1.1"
   viewBox="0 0 100 100"
   xml:space="preserve"
   sodipodi:docname="Next icon.svg"
   inkscape:export-filename="C:\Users\luisa\Proyectos\Programas\Stereux\Properties\Icons\Next icon.png"
   inkscape:export-xdpi="30.719999"
   inkscape:export-ydpi="30.719999"
   inkscape:version="1.1.1 (3bf5ae0d25, 2021-09-20)"
   xmlns:inkscape="http://www.inkscape.org/namespaces/inkscape"
   xmlns:sodipodi="http://sodipodi.sourceforge.net/DTD/sodipodi-0.dtd"
   xmlns="http://www.w3.org/2000/svg"
   xmlns:svg="http://www.w3.org/2000/svg"><defs
     id="defs18" /><sodipodi:namedview
     id="namedview16"
     pagecolor="#505050"
     bordercolor="#eeeeee"
     borderopacity="1"
     inkscape:pageshadow="0"
     inkscape:pageopacity="0"
     inkscape:pagecheckerboard="0"
     showgrid="false"
     inkscape:zoom="2.8284271"
     inkscape:cx="57.629202"
     inkscape:cy="44.017397"
     inkscape:window-width="1366"
     inkscape:window-height="705"
     inkscape:window-x="-8"
     inkscape:window-y="-8"
     inkscape:window-maximized="1"
     inkscape:current-layer="blue_copy" /><g
     id="Layer_8_copy_4_1_"
     transform="matrix(1.4151424,0,0,1.4151424,-20.053058,-20.75712)"><path
       d="m 41.762,27.26 v 8.294 c 0,0.571 0.305,1.1 0.8,1.385 l 20.212,11.669 c 1.066,0.616 1.066,2.155 0,2.771 L 42.562,63.048 c -0.495,0.286 -0.8,0.814 -0.8,1.385 v 8.294 c 0,1.231 1.333,2.001 2.399,1.385 L 83.536,51.379 c 1.066,-0.616 1.066,-2.155 0,-2.771 L 44.161,25.875 c -1.066,-0.616 -2.399,0.154 -2.399,1.385 z"
       id="path2" /><path
       d="M 83.537,48.608 44.161,25.875 c -0.193,-0.112 -0.395,-0.164 -0.597,-0.19 l 37.972,21.923 c 1.066,0.616 1.066,2.155 0,2.771 L 42.161,73.112 c -0.1,0.058 -0.205,0.092 -0.308,0.126 0.308,0.914 1.401,1.398 2.308,0.874 L 83.536,51.379 c 1.067,-0.616 1.067,-2.155 0.001,-2.771 z"
       id="path4" /><path
       d="m 41.762,27.26 v 8.294 c 0,0.571 0.305,1.1 0.8,1.385 l 20.212,11.669 c 1.066,0.616 1.066,2.155 0,2.771 L 42.562,63.048 c -0.495,0.286 -0.8,0.814 -0.8,1.385 v 8.294 c 0,1.231 1.333,2.001 2.399,1.385 L 83.536,51.379 c 1.066,-0.616 1.066,-2.155 0,-2.771 L 44.161,25.875 c -1.066,-0.616 -2.399,0.154 -2.399,1.385 z"
       style="fill:none;stroke:#000000;stroke-miterlimit:10"
       id="path6" /><path
       d="m 14.664,27.273 v 8.294 c 0,0.571 0.305,1.1 0.8,1.385 l 20.212,11.669 c 1.066,0.616 1.066,2.155 0,2.771 L 15.464,63.061 c -0.495,0.286 -0.8,0.814 -0.8,1.385 v 8.294 c 0,1.231 1.333,2.001 2.399,1.385 L 56.438,51.392 c 1.066,-0.616 1.066,-2.155 0,-2.771 L 17.063,25.888 c -1.066,-0.616 -2.399,0.154 -2.399,1.385 z"
       id="path8" /><path
       d="M 56.438,48.621 17.063,25.888 c -0.193,-0.112 -0.395,-0.164 -0.597,-0.19 l 37.972,21.923 c 1.066,0.616 1.066,2.155 0,2.771 L 15.063,73.125 c -0.1,0.058 -0.205,0.092 -0.308,0.126 0.308,0.914 1.401,1.398 2.308,0.874 L 56.438,51.392 c 1.067,-0.616 1.067,-2.155 0,-2.771 z"
       id="path10" /><path
       d="m 14.664,27.273 v 8.294 c 0,0.571 0.305,1.1 0.8,1.385 l 20.212,11.669 c 1.066,0.616 1.066,2.155 0,2.771 L 15.464,63.061 c -0.495,0.286 -0.8,0.814 -0.8,1.385 v 8.294 c 0,1.231 1.333,2.001 2.399,1.385 L 56.438,51.392 c 1.066,-0.616 1.066,-2.155 0,-2.771 L 17.063,25.888 c -1.066,-0.616 -2.399,0.154 -2.399,1.385 z"
       style="fill:none;stroke:#000000;stroke-miterlimit:10"
       id="path12" /></g></svg>
