<?xml version="1.0" encoding="UTF-8" standalone="no"?>
<svg
   id="blue_copy"
   style="enable-background:new 0 0 100 100;"
   version="1.1"
   viewBox="0 0 100 100"
   xml:space="preserve"
   sodipodi:docname="Pause icon.svg"
   inkscape:export-filename="C:\Users\luisa\Proyectos\Programas\Stereux\Properties\Icons\Pause icon.png"
   inkscape:export-xdpi="30.719999"
   inkscape:export-ydpi="30.719999"
   inkscape:version="1.1.1 (3bf5ae0d25, 2021-09-20)"
   xmlns:inkscape="http://www.inkscape.org/namespaces/inkscape"
   xmlns:sodipodi="http://sodipodi.sourceforge.net/DTD/sodipodi-0.dtd"
   xmlns="http://www.w3.org/2000/svg"
   xmlns:svg="http://www.w3.org/2000/svg"><defs
     id="defs18" /><sodipodi:namedview
     id="namedview16"
     pagecolor="#505050"
     bordercolor="#eeeeee"
     borderopacity="1"
     inkscape:pageshadow="0"
     inkscape:pageopacity="0"
     inkscape:pagecheckerboard="0"
     showgrid="false"
     inkscape:zoom="2.6"
     inkscape:cx="28.076923"
     inkscape:cy="46.346154"
     inkscape:window-width="1366"
     inkscape:window-height="705"
     inkscape:window-x="-8"
     inkscape:window-y="-8"
     inkscape:window-maximized="1"
     inkscape:current-layer="blue_copy" /><g
     id="Layer_7_copy"
     transform="matrix(2.1679762,0,0,2.1377704,-57.345848,-56.862332)"><path
       d="m 39.806,72.858 h -8.915 c -2.176,0 -3.94,-1.764 -3.94,-3.94 V 31.119 c 0,-2.176 1.764,-3.94 3.94,-3.94 h 8.915 c 2.176,0 3.94,1.764 3.94,3.94 v 37.799 c 0,2.176 -1.764,3.94 -3.94,3.94 z"
       id="path2" /><path
       d="m 68.109,72.821 h -8.915 c -2.176,0 -3.94,-1.764 -3.94,-3.94 V 31.082 c 0,-2.176 1.764,-3.94 3.94,-3.94 h 8.915 c 2.176,0 3.94,1.764 3.94,3.94 v 37.799 c 0,2.176 -1.764,3.94 -3.94,3.94 z"
       id="path4" /><path
       d="m 40.489,27.248 c 0.769,0.719 1.257,1.735 1.257,2.871 v 37.799 c 0,2.176 -1.764,3.94 -3.94,3.94 h -8.915 c -0.234,0 -0.46,-0.03 -0.683,-0.069 0.704,0.658 1.643,1.069 2.683,1.069 h 8.915 c 2.176,0 3.94,-1.764 3.94,-3.94 V 31.119 c 0,-1.942 -1.408,-3.546 -3.257,-3.871 z"
       id="path6" /><path
       d="m 68.792,27.211 c 0.769,0.719 1.257,1.735 1.257,2.871 v 37.799 c 0,2.176 -1.764,3.94 -3.94,3.94 h -8.915 c -0.234,0 -0.46,-0.03 -0.683,-0.069 0.704,0.658 1.643,1.069 2.683,1.069 h 8.915 c 2.176,0 3.94,-1.764 3.94,-3.94 V 31.082 c 0,-1.942 -1.408,-3.547 -3.257,-3.871 z"
       id="path8" /><path
       d="m 39.806,72.858 h -8.915 c -2.176,0 -3.94,-1.764 -3.94,-3.94 V 31.119 c 0,-2.176 1.764,-3.94 3.94,-3.94 h 8.915 c 2.176,0 3.94,1.764 3.94,3.94 v 37.799 c 0,2.176 -1.764,3.94 -3.94,3.94 z"
       style="fill:none;stroke:#000000;stroke-miterlimit:10"
       id="path10" /><path
       d="m 68.109,72.821 h -8.915 c -2.176,0 -3.94,-1.764 -3.94,-3.94 V 31.082 c 0,-2.176 1.764,-3.94 3.94,-3.94 h 8.915 c 2.176,0 3.94,1.764 3.94,3.94 v 37.799 c 0,2.176 -1.764,3.94 -3.94,3.94 z"
       style="fill:none;stroke:#000000;stroke-miterlimit:10"
       id="path12" /></g></svg>
