<?xml version="1.0" encoding="UTF-8" standalone="no"?>
<svg
   id="blue_copy"
   version="1.1"
   viewBox="0 0 44.281193 44.35283"
   xml:space="preserve"
   sodipodi:docname="Play icon.svg"
   width="44.281193"
   height="44.352829"
   inkscape:version="1.1.1 (3bf5ae0d25, 2021-09-20)"
   inkscape:export-filename="C:\Users\luisa\Proyectos\Programas\Stereux\Properties\Icons\Play icon.png"
   inkscape:export-xdpi="69.374825"
   inkscape:export-ydpi="69.374825"
   xmlns:inkscape="http://www.inkscape.org/namespaces/inkscape"
   xmlns:sodipodi="http://sodipodi.sourceforge.net/DTD/sodipodi-0.dtd"
   xmlns="http://www.w3.org/2000/svg"
   xmlns:svg="http://www.w3.org/2000/svg"><defs
     id="defs12" /><sodipodi:namedview
     id="namedview10"
     pagecolor="#505050"
     bordercolor="#eeeeee"
     borderopacity="1"
     inkscape:pageshadow="0"
     inkscape:pageopacity="0"
     inkscape:pagecheckerboard="0"
     showgrid="false"
     fit-margin-top="0"
     fit-margin-left="0"
     fit-margin-right="0"
     fit-margin-bottom="0"
     inkscape:zoom="7.3539105"
     inkscape:cx="18.221598"
     inkscape:cy="20.32932"
     inkscape:window-width="1366"
     inkscape:window-height="705"
     inkscape:window-x="-8"
     inkscape:window-y="-8"
     inkscape:window-maximized="1"
     inkscape:current-layer="blue_copy" /><g
     id="Layer_4_copy"
     transform="matrix(1,0,0,0.88239953,-27.352,-21.943593)"><path
       d="m 31.356,25.677 38.625,22.3 c 1.557,0.899 1.557,3.147 0,4.046 l -38.625,22.3 C 29.799,75.222 27.852,74.098 27.852,72.3 V 27.7 c 0,-1.798 1.946,-2.922 3.504,-2.023 z"
       id="path2" /><path
       d="m 69.981,47.977 -38.625,-22.3 c -0.233,-0.134 -0.474,-0.21 -0.716,-0.259 l 37.341,21.559 c 1.557,0.899 1.557,3.147 0,4.046 l -38.625,22.3 c -0.349,0.201 -0.716,0.288 -1.078,0.301 0.656,0.938 1.961,1.343 3.078,0.699 l 38.625,-22.3 c 1.557,-0.899 1.557,-3.147 0,-4.046 z"
       id="path4" /><path
       d="m 31.356,25.677 38.625,22.3 c 1.557,0.899 1.557,3.147 0,4.046 l -38.625,22.3 C 29.799,75.222 27.852,74.098 27.852,72.3 V 27.7 c 0,-1.798 1.946,-2.922 3.504,-2.023 z"
       style="fill:none;stroke:#000000;stroke-miterlimit:10"
       id="path6" /></g></svg>
