<?xml version="1.0" encoding="UTF-8" standalone="no"?>
<svg
   width="37"
   height="37"
   viewBox="0 0 37 37"
   version="1.1"
   id="svg4"
   sodipodi:docname="repo-qr.svg"
   inkscape:version="1.2 (dc2aedaf03, 2022-05-15)"
   inkscape:export-filename="repo-qr.png"
   inkscape:export-xdpi="200"
   inkscape:export-ydpi="200"
   xmlns:inkscape="http://www.inkscape.org/namespaces/inkscape"
   xmlns:sodipodi="http://sodipodi.sourceforge.net/DTD/sodipodi-0.dtd"
   xmlns="http://www.w3.org/2000/svg"
   xmlns:svg="http://www.w3.org/2000/svg">
  <defs
     id="defs8" />
  <sodipodi:namedview
     id="namedview6"
     pagecolor="#505050"
     bordercolor="#eeeeee"
     borderopacity="1"
     inkscape:showpageshadow="0"
     inkscape:pageopacity="0"
     inkscape:pagecheckerboard="0"
     inkscape:deskcolor="#505050"
     showgrid="false"
     inkscape:zoom="10.033272"
     inkscape:cx="9.9668384"
     inkscape:cy="20.033345"
     inkscape:window-width="1366"
     inkscape:window-height="705"
     inkscape:window-x="-8"
     inkscape:window-y="-8"
     inkscape:window-maximized="1"
     inkscape:current-layer="svg4" />
  <path
     d="M 0,0 H 1.2758621 V 1.2758621 H 0 Z m 1.2758621,0 h 1.275862 v 1.2758621 h -1.275862 z m 1.275862,0 H 3.8275862 V 1.2758621 H 2.5517241 Z M 3.8275862,0 H 5.1034483 V 1.2758621 H 3.8275862 Z m 1.2758621,0 h 1.275862 v 1.2758621 h -1.275862 z m 1.275862,0 H 7.6551724 V 1.2758621 H 6.3793103 Z M 7.6551724,0 H 8.9310345 V 1.2758621 H 7.6551724 Z m 6.3793106,0 h 1.275862 v 1.2758621 h -1.275862 z m 1.275862,0 h 1.275862 v 1.2758621 h -1.275862 z m 1.275862,0 h 1.275862 v 1.2758621 h -1.275862 z m 1.275862,0 h 1.275862 v 1.2758621 h -1.275862 z m 1.275862,0 h 1.275862 v 1.2758621 h -1.275862 z m 2.551724,0 h 1.275862 v 1.2758621 h -1.275862 z m 2.551724,0 h 1.275862 v 1.2758621 h -1.275862 z m 3.827587,0 h 1.275862 v 1.2758621 h -1.275862 z m 1.275862,0 h 1.275862 v 1.2758621 h -1.275862 z m 1.275862,0 h 1.275862 V 1.2758621 H 30.62069 Z m 1.275862,0 h 1.275862 v 1.2758621 h -1.275862 z m 1.275862,0 h 1.275862 v 1.2758621 h -1.275862 z m 1.275862,0 h 1.275862 v 1.2758621 h -1.275862 z m 1.275862,0 H 37 V 1.2758621 H 35.724138 Z M 0,1.2758621 h 1.2758621 v 1.275862 H 0 Z m 7.6551724,0 h 1.2758621 v 1.275862 H 7.6551724 Z m 3.8275866,0 h 1.275862 v 1.275862 h -1.275862 z m 1.275862,0 h 1.275862 v 1.275862 h -1.275862 z m 3.827586,0 h 1.275862 v 1.275862 h -1.275862 z m 1.275862,0 h 1.275862 v 1.275862 h -1.275862 z m 2.551724,0 h 1.275862 v 1.275862 h -1.275862 z m 1.275862,0 h 1.275862 v 1.275862 h -1.275862 z m 3.827586,0 h 1.275862 v 1.275862 h -1.275862 z m 2.551725,0 h 1.275862 v 1.275862 h -1.275862 z m 7.655172,0 H 37 v 1.275862 H 35.724138 Z M 0,2.5517241 H 1.2758621 V 3.8275862 H 0 Z m 2.5517241,0 H 3.8275862 V 3.8275862 H 2.5517241 Z m 1.2758621,0 H 5.1034483 V 3.8275862 H 3.8275862 Z m 1.2758621,0 h 1.275862 v 1.2758621 h -1.275862 z m 2.5517241,0 H 8.9310345 V 3.8275862 H 7.6551724 Z m 7.6551726,0 h 1.275862 v 1.2758621 h -1.275862 z m 5.103448,0 h 1.275862 v 1.2758621 h -1.275862 z m 1.275862,0 h 1.275862 v 1.2758621 h -1.275862 z m 1.275862,0 h 1.275862 v 1.2758621 h -1.275862 z m 1.275862,0 h 1.275862 v 1.2758621 h -1.275862 z m 1.275862,0 h 1.275862 v 1.2758621 h -1.275862 z m 2.551725,0 h 1.275862 v 1.2758621 h -1.275862 z m 2.551724,0 h 1.275862 V 3.8275862 H 30.62069 Z m 1.275862,0 h 1.275862 v 1.2758621 h -1.275862 z m 1.275862,0 h 1.275862 v 1.2758621 h -1.275862 z m 2.551724,0 H 37 V 3.8275862 H 35.724138 Z M 0,3.8275862 H 1.2758621 V 5.1034483 H 0 Z m 2.5517241,0 H 3.8275862 V 5.1034483 H 2.5517241 Z m 1.2758621,0 H 5.1034483 V 5.1034483 H 3.8275862 Z m 1.2758621,0 h 1.275862 v 1.2758621 h -1.275862 z m 2.5517241,0 H 8.9310345 V 5.1034483 H 7.6551724 Z m 2.5517246,0 h 1.275862 v 1.2758621 h -1.275862 z m 5.103448,0 h 1.275862 v 1.2758621 h -1.275862 z m 7.655172,0 h 1.275862 v 1.2758621 h -1.275862 z m 2.551724,0 h 1.275862 v 1.2758621 h -1.275862 z m 2.551725,0 h 1.275862 v 1.2758621 h -1.275862 z m 2.551724,0 h 1.275862 V 5.1034483 H 30.62069 Z m 1.275862,0 h 1.275862 v 1.2758621 h -1.275862 z m 1.275862,0 h 1.275862 v 1.2758621 h -1.275862 z m 2.551724,0 H 37 V 5.1034483 H 35.724138 Z M 0,5.1034483 h 1.2758621 v 1.275862 H 0 Z m 2.5517241,0 h 1.2758621 v 1.275862 H 2.5517241 Z m 1.2758621,0 h 1.2758621 v 1.275862 H 3.8275862 Z m 1.2758621,0 h 1.275862 v 1.275862 h -1.275862 z m 2.5517241,0 h 1.2758621 v 1.275862 H 7.6551724 Z m 2.5517246,0 h 1.275862 v 1.275862 h -1.275862 z m 1.275862,0 h 1.275862 v 1.275862 h -1.275862 z m 6.37931,0 h 1.275862 v 1.275862 h -1.275862 z m 7.655172,0 h 1.275862 v 1.275862 h -1.275862 z m 2.551725,0 h 1.275862 v 1.275862 h -1.275862 z m 2.551724,0 h 1.275862 v 1.275862 H 30.62069 Z m 1.275862,0 h 1.275862 v 1.275862 h -1.275862 z m 1.275862,0 h 1.275862 v 1.275862 h -1.275862 z m 2.551724,0 H 37 v 1.275862 H 35.724138 Z M 0,6.3793103 H 1.2758621 V 7.6551724 H 0 Z m 7.6551724,0 H 8.9310345 V 7.6551724 H 7.6551724 Z m 6.3793106,0 h 1.275862 v 1.2758621 h -1.275862 z m 1.275862,0 h 1.275862 v 1.2758621 h -1.275862 z m 1.275862,0 h 1.275862 v 1.2758621 h -1.275862 z m 1.275862,0 h 1.275862 v 1.2758621 h -1.275862 z m 2.551724,0 h 1.275862 v 1.2758621 h -1.275862 z m 1.275862,0 h 1.275862 v 1.2758621 h -1.275862 z m 2.551724,0 h 1.275862 v 1.2758621 h -1.275862 z m 3.827587,0 h 1.275862 v 1.2758621 h -1.275862 z m 7.655172,0 H 37 V 7.6551724 H 35.724138 Z M 0,7.6551724 H 1.2758621 V 8.9310345 H 0 Z m 1.2758621,0 h 1.275862 v 1.2758621 h -1.275862 z m 1.275862,0 H 3.8275862 V 8.9310345 H 2.5517241 Z m 1.2758621,0 H 5.1034483 V 8.9310345 H 3.8275862 Z m 1.2758621,0 h 1.275862 v 1.2758621 h -1.275862 z m 1.275862,0 H 7.6551724 V 8.9310345 H 6.3793103 Z m 1.2758621,0 H 8.9310345 V 8.9310345 H 7.6551724 Z m 2.5517246,0 h 1.275862 v 1.2758621 h -1.275862 z m 2.551724,0 h 1.275862 v 1.2758621 h -1.275862 z m 2.551724,0 h 1.275862 v 1.2758621 h -1.275862 z m 2.551724,0 h 1.275862 v 1.2758621 h -1.275862 z m 2.551724,0 h 1.275862 v 1.2758621 h -1.275862 z m 2.551724,0 h 1.275862 v 1.2758621 h -1.275862 z m 2.551724,0 h 1.275862 v 1.2758621 h -1.275862 z m 2.551725,0 h 1.275862 v 1.2758621 h -1.275862 z m 1.275862,0 h 1.275862 v 1.2758621 h -1.275862 z m 1.275862,0 h 1.275862 V 8.9310345 H 30.62069 Z m 1.275862,0 h 1.275862 v 1.2758621 h -1.275862 z m 1.275862,0 h 1.275862 v 1.2758621 h -1.275862 z m 1.275862,0 h 1.275862 v 1.2758621 h -1.275862 z m 1.275862,0 H 37 V 8.9310345 H 35.724138 Z M 12.758621,8.9310345 h 1.275862 v 1.2758625 h -1.275862 z m 1.275862,0 h 1.275862 v 1.2758625 h -1.275862 z m 3.827586,0 h 1.275862 v 1.2758625 h -1.275862 z m 2.551724,0 h 1.275862 v 1.2758625 h -1.275862 z m 5.103448,0 h 1.275862 V 10.206897 H 25.517241 Z M 0,10.206897 h 1.2758621 v 1.275862 H 0 Z m 1.2758621,0 h 1.275862 v 1.275862 h -1.275862 z m 5.1034482,0 h 1.2758621 v 1.275862 H 6.3793103 Z m 1.2758621,0 h 1.2758621 v 1.275862 H 7.6551724 Z m 1.2758621,0 h 1.2758625 v 1.275862 H 8.9310345 Z m 2.5517245,0 h 1.275862 v 1.275862 h -1.275862 z m 2.551724,0 h 1.275862 v 1.275862 h -1.275862 z m 2.551724,0 h 1.275862 v 1.275862 h -1.275862 z m 2.551724,0 h 1.275862 v 1.275862 h -1.275862 z m 1.275862,0 h 1.275862 v 1.275862 h -1.275862 z m 1.275862,0 h 1.275862 v 1.275862 h -1.275862 z m 1.275862,0 h 1.275862 v 1.275862 h -1.275862 z m 2.551724,0 h 1.275862 v 1.275862 h -1.275862 z m 5.103449,0 h 1.275862 v 1.275862 H 30.62069 Z m 1.275862,0 h 1.275862 v 1.275862 H 31.896552 Z M 1.2758621,11.482759 h 1.275862 v 1.275862 h -1.275862 z m 1.275862,0 h 1.2758621 v 1.275862 H 2.5517241 Z m 1.2758621,0 h 1.2758621 v 1.275862 H 3.8275862 Z m 6.3793108,0 h 1.275862 v 1.275862 h -1.275862 z m 1.275862,0 h 1.275862 v 1.275862 h -1.275862 z m 3.827586,0 h 1.275862 v 1.275862 h -1.275862 z m 2.551724,0 h 1.275862 v 1.275862 h -1.275862 z m 1.275862,0 h 1.275862 v 1.275862 h -1.275862 z m 5.103448,0 h 1.275862 v 1.275862 h -1.275862 z m 3.827587,0 h 1.275862 v 1.275862 h -1.275862 z m 1.275862,0 h 1.275862 v 1.275862 h -1.275862 z m 1.275862,0 h 1.275862 v 1.275862 H 30.62069 Z m 1.275862,0 h 1.275862 v 1.275862 h -1.275862 z m 1.275862,0 h 1.275862 v 1.275862 h -1.275862 z m 2.551724,0 H 37 v 1.275862 H 35.724138 Z M 0,12.758621 h 1.2758621 v 1.275862 H 0 Z m 1.2758621,0 h 1.275862 v 1.275862 h -1.275862 z m 1.275862,0 h 1.2758621 v 1.275862 H 2.5517241 Z m 1.2758621,0 h 1.2758621 v 1.275862 H 3.8275862 Z m 1.2758621,0 h 1.275862 v 1.275862 h -1.275862 z m 2.5517241,0 h 1.2758621 v 1.275862 H 7.6551724 Z m 1.2758621,0 h 1.2758625 v 1.275862 H 8.9310345 Z m 3.8275865,0 h 1.275862 v 1.275862 h -1.275862 z m 3.827586,0 h 1.275862 v 1.275862 h -1.275862 z m 1.275862,0 h 1.275862 v 1.275862 h -1.275862 z m 6.37931,0 h 1.275862 v 1.275862 h -1.275862 z m 5.103449,0 h 1.275862 v 1.275862 h -1.275862 z m 2.551724,0 h 1.275862 v 1.275862 h -1.275862 z m 1.275862,0 h 1.275862 v 1.275862 H 33.172414 Z M 0,14.034483 h 1.2758621 v 1.275862 H 0 Z m 3.8275862,0 h 1.2758621 v 1.275862 H 3.8275862 Z m 1.2758621,0 h 1.275862 v 1.275862 h -1.275862 z m 1.275862,0 h 1.2758621 v 1.275862 H 6.3793103 Z m 2.5517242,0 h 1.2758625 v 1.275862 H 8.9310345 Z m 1.2758625,0 h 1.275862 v 1.275862 h -1.275862 z m 1.275862,0 h 1.275862 v 1.275862 h -1.275862 z m 3.827586,0 h 1.275862 v 1.275862 h -1.275862 z m 3.827586,0 h 1.275862 v 1.275862 h -1.275862 z m 3.827586,0 h 1.275862 v 1.275862 h -1.275862 z m 1.275862,0 h 1.275862 v 1.275862 h -1.275862 z m 3.827587,0 h 1.275862 v 1.275862 h -1.275862 z m 1.275862,0 h 1.275862 v 1.275862 h -1.275862 z m 1.275862,0 h 1.275862 v 1.275862 H 30.62069 Z m 1.275862,0 h 1.275862 v 1.275862 h -1.275862 z m 2.551724,0 h 1.275862 v 1.275862 h -1.275862 z m 1.275862,0 H 37 v 1.275862 H 35.724138 Z M 2.5517241,15.310345 h 1.2758621 v 1.275862 H 2.5517241 Z m 1.2758621,0 h 1.2758621 v 1.275862 H 3.8275862 Z m 1.2758621,0 h 1.275862 v 1.275862 h -1.275862 z m 1.275862,0 h 1.2758621 v 1.275862 H 6.3793103 Z m 1.2758621,0 h 1.2758621 v 1.275862 H 7.6551724 Z m 3.8275866,0 h 1.275862 v 1.275862 h -1.275862 z m 2.551724,0 h 1.275862 v 1.275862 h -1.275862 z m 1.275862,0 h 1.275862 v 1.275862 h -1.275862 z m 1.275862,0 h 1.275862 v 1.275862 h -1.275862 z m 2.551724,0 h 1.275862 v 1.275862 h -1.275862 z m 1.275862,0 h 1.275862 v 1.275862 h -1.275862 z m 1.275862,0 h 1.275862 v 1.275862 h -1.275862 z m 1.275862,0 h 1.275862 v 1.275862 h -1.275862 z m 1.275862,0 h 1.275862 v 1.275862 h -1.275862 z m 2.551724,0 h 1.275863 v 1.275862 h -1.275863 z m 3.827587,0 h 1.275862 v 1.275862 H 30.62069 Z m 1.275862,0 h 1.275862 v 1.275862 h -1.275862 z m 1.275862,0 h 1.275862 v 1.275862 h -1.275862 z m 2.551724,0 H 37 v 1.275862 H 35.724138 Z M 0,16.586207 h 1.2758621 v 1.275862 H 0 Z m 1.2758621,0 h 1.275862 v 1.275862 h -1.275862 z m 1.275862,0 h 1.2758621 v 1.275862 H 2.5517241 Z m 3.8275862,0 h 1.2758621 v 1.275862 H 6.3793103 Z m 5.1034487,0 h 1.275862 v 1.275862 h -1.275862 z m 6.37931,0 h 1.275862 v 1.275862 h -1.275862 z m 1.275862,0 h 1.275862 v 1.275862 h -1.275862 z m 6.37931,0 h 1.275862 v 1.275862 h -1.275862 z m 6.379311,0 h 1.275862 v 1.275862 H 31.896552 Z M 0,17.862069 h 1.2758621 v 1.275862 H 0 Z m 5.1034483,0 h 1.275862 v 1.275862 h -1.275862 z m 1.275862,0 h 1.2758621 v 1.275862 H 6.3793103 Z m 1.2758621,0 h 1.2758621 v 1.275862 H 7.6551724 Z m 2.5517246,0 h 1.275862 v 1.275862 h -1.275862 z m 3.827586,0 h 1.275862 v 1.275862 h -1.275862 z m 1.275862,0 h 1.275862 v 1.275862 h -1.275862 z m 1.275862,0 h 1.275862 v 1.275862 h -1.275862 z m 1.275862,0 h 1.275862 v 1.275862 h -1.275862 z m 1.275862,0 h 1.275862 v 1.275862 h -1.275862 z m 1.275862,0 h 1.275862 v 1.275862 h -1.275862 z m 1.275862,0 h 1.275862 v 1.275862 h -1.275862 z m 2.551724,0 h 1.275862 v 1.275862 h -1.275862 z m 7.655173,0 h 1.275862 v 1.275862 h -1.275862 z m 1.275862,0 h 1.275862 v 1.275862 h -1.275862 z m 1.275862,0 h 1.275862 v 1.275862 h -1.275862 z m 1.275862,0 H 37 v 1.275862 H 35.724138 Z M 0,19.137931 h 1.2758621 v 1.275862 H 0 Z m 1.2758621,0 h 1.275862 v 1.275862 h -1.275862 z m 7.6551724,0 h 1.2758625 v 1.275862 H 8.9310345 Z m 2.5517245,0 h 1.275862 v 1.275862 h -1.275862 z m 1.275862,0 h 1.275862 v 1.275862 h -1.275862 z m 1.275862,0 h 1.275862 v 1.275862 h -1.275862 z m 5.103448,0 h 1.275862 v 1.275862 h -1.275862 z m 1.275862,0 h 1.275862 v 1.275862 h -1.275862 z m 1.275862,0 h 1.275862 v 1.275862 h -1.275862 z m 1.275862,0 h 1.275862 v 1.275862 h -1.275862 z m 1.275862,0 h 1.275862 v 1.275862 h -1.275862 z m 2.551724,0 h 1.275863 v 1.275862 h -1.275863 z m 2.551725,0 h 1.275862 v 1.275862 h -1.275862 z m 1.275862,0 h 1.275862 v 1.275862 H 30.62069 Z m 2.551724,0 h 1.275862 v 1.275862 H 33.172414 Z M 1.2758621,20.413793 h 1.275862 v 1.275862 h -1.275862 z m 2.5517241,0 h 1.2758621 v 1.275862 H 3.8275862 Z m 1.2758621,0 h 1.275862 v 1.275862 h -1.275862 z m 2.5517241,0 h 1.2758621 v 1.275862 H 7.6551724 Z m 1.2758621,0 h 1.2758625 v 1.275862 H 8.9310345 Z m 1.2758625,0 h 1.275862 v 1.275862 h -1.275862 z m 1.275862,0 h 1.275862 v 1.275862 h -1.275862 z m 1.275862,0 h 1.275862 v 1.275862 h -1.275862 z m 1.275862,0 h 1.275862 v 1.275862 h -1.275862 z m 3.827586,0 h 1.275862 v 1.275862 h -1.275862 z m 1.275862,0 h 1.275862 v 1.275862 h -1.275862 z m 1.275862,0 h 1.275862 v 1.275862 h -1.275862 z m 5.103448,0 h 1.275862 v 1.275862 h -1.275862 z m 3.827587,0 h 1.275862 v 1.275862 H 29.344828 Z M 0,21.689655 h 1.2758621 v 1.275862 H 0 Z m 1.2758621,0 h 1.275862 v 1.275862 h -1.275862 z m 1.275862,0 h 1.2758621 v 1.275862 H 2.5517241 Z m 3.8275862,0 h 1.2758621 v 1.275862 H 6.3793103 Z m 3.8275867,0 h 1.275862 v 1.275862 h -1.275862 z m 1.275862,0 h 1.275862 v 1.275862 h -1.275862 z m 3.827586,0 h 1.275862 v 1.275862 h -1.275862 z m 2.551724,0 h 1.275862 v 1.275862 h -1.275862 z m 5.103448,0 h 1.275862 v 1.275862 h -1.275862 z m 1.275862,0 h 1.275862 v 1.275862 h -1.275862 z m 1.275862,0 h 1.275862 v 1.275862 h -1.275862 z m 1.275862,0 h 1.275863 v 1.275862 h -1.275863 z m 2.551725,0 h 1.275862 v 1.275862 h -1.275862 z m 1.275862,0 h 1.275862 v 1.275862 H 30.62069 Z m 1.275862,0 h 1.275862 v 1.275862 H 31.896552 Z M 0,22.965517 h 1.2758621 v 1.275862 H 0 Z m 1.2758621,0 h 1.275862 v 1.275862 h -1.275862 z m 1.275862,0 h 1.2758621 v 1.275862 H 2.5517241 Z m 2.5517242,0 h 1.275862 v 1.275862 h -1.275862 z m 1.275862,0 h 1.2758621 v 1.275862 H 6.3793103 Z m 1.2758621,0 h 1.2758621 v 1.275862 H 7.6551724 Z m 5.1034486,0 h 1.275862 v 1.275862 h -1.275862 z m 1.275862,0 h 1.275862 v 1.275862 h -1.275862 z m 11.482758,0 h 1.275862 v 1.275862 h -1.275862 z m 2.551725,0 h 1.275862 v 1.275862 h -1.275862 z m 1.275862,0 h 1.275862 v 1.275862 h -1.275862 z m 5.103448,0 h 1.275862 v 1.275862 H 34.448276 Z M 0,24.241379 h 1.2758621 v 1.275862 H 0 Z m 3.8275862,0 h 1.2758621 v 1.275862 H 3.8275862 Z m 1.2758621,0 h 1.275862 v 1.275862 h -1.275862 z m 1.275862,0 h 1.2758621 v 1.275862 H 6.3793103 Z m 3.8275867,0 h 1.275862 v 1.275862 h -1.275862 z m 1.275862,0 h 1.275862 v 1.275862 h -1.275862 z m 3.827586,0 h 1.275862 v 1.275862 h -1.275862 z m 1.275862,0 h 1.275862 v 1.275862 h -1.275862 z m 1.275862,0 h 1.275862 v 1.275862 h -1.275862 z m 1.275862,0 h 1.275862 v 1.275862 h -1.275862 z m 3.827586,0 h 1.275862 v 1.275862 h -1.275862 z m 1.275862,0 h 1.275862 v 1.275862 h -1.275862 z m 1.275862,0 h 1.275862 v 1.275862 h -1.275862 z m 2.551725,0 h 1.275862 v 1.275862 h -1.275862 z m 1.275862,0 h 1.275862 v 1.275862 h -1.275862 z m 1.275862,0 h 1.275862 v 1.275862 H 30.62069 Z m 5.103448,0 H 37 v 1.275862 H 35.724138 Z M 0,25.517241 h 1.2758621 v 1.275862 H 0 Z m 3.8275862,0 h 1.2758621 v 1.275862 H 3.8275862 Z m 1.2758621,0 h 1.275862 v 1.275862 h -1.275862 z m 1.275862,0 h 1.2758621 v 1.275862 H 6.3793103 Z m 1.2758621,0 h 1.2758621 v 1.275862 H 7.6551724 Z m 1.2758621,0 h 1.2758625 v 1.275862 H 8.9310345 Z m 1.2758625,0 h 1.275862 v 1.275862 h -1.275862 z m 1.275862,0 h 1.275862 v 1.275862 h -1.275862 z m 1.275862,0 h 1.275862 v 1.275862 h -1.275862 z m 2.551724,0 h 1.275862 v 1.275862 h -1.275862 z m 3.827586,0 h 1.275862 v 1.275862 h -1.275862 z m 1.275862,0 h 1.275862 v 1.275862 h -1.275862 z m 1.275862,0 h 1.275862 v 1.275862 h -1.275862 z m 3.827586,0 h 1.275862 v 1.275862 h -1.275862 z m 1.275862,0 h 1.275863 v 1.275862 h -1.275863 z m 1.275863,0 h 1.275862 v 1.275862 h -1.275862 z m 1.275862,0 h 1.275862 v 1.275862 h -1.275862 z m 1.275862,0 h 1.275862 v 1.275862 H 30.62069 Z m 1.275862,0 h 1.275862 v 1.275862 h -1.275862 z m 1.275862,0 h 1.275862 v 1.275862 h -1.275862 z m 1.275862,0 h 1.275862 v 1.275862 h -1.275862 z m -24.241379,1.275862 h 1.275862 v 1.275863 h -1.275862 z m 1.275862,0 h 1.275862 v 1.275863 h -1.275862 z m 1.275862,0 h 1.275862 v 1.275863 h -1.275862 z m 5.103448,0 h 1.275862 v 1.275863 h -1.275862 z m 1.275862,0 h 1.275862 v 1.275863 h -1.275862 z m 3.827586,0 h 1.275862 v 1.275863 h -1.275862 z m 1.275862,0 h 1.275862 v 1.275863 h -1.275862 z m 1.275862,0 h 1.275862 v 1.275863 h -1.275862 z m 5.103449,0 h 1.275862 v 1.275863 H 30.62069 Z m 2.551724,0 h 1.275862 v 1.275863 h -1.275862 z m 2.551724,0 H 37 v 1.275863 H 35.724138 Z M 0,28.068966 h 1.2758621 v 1.275862 H 0 Z m 1.2758621,0 h 1.275862 v 1.275862 h -1.275862 z m 1.275862,0 h 1.2758621 v 1.275862 H 2.5517241 Z m 1.2758621,0 h 1.2758621 v 1.275862 H 3.8275862 Z m 1.2758621,0 h 1.275862 v 1.275862 h -1.275862 z m 1.275862,0 h 1.2758621 v 1.275862 H 6.3793103 Z m 1.2758621,0 h 1.2758621 v 1.275862 H 7.6551724 Z m 2.5517246,0 h 1.275862 v 1.275862 h -1.275862 z m 3.827586,0 h 1.275862 v 1.275862 h -1.275862 z m 1.275862,0 h 1.275862 v 1.275862 h -1.275862 z m 6.37931,0 h 1.275862 v 1.275862 h -1.275862 z m 2.551724,0 h 1.275862 v 1.275862 h -1.275862 z m 1.275862,0 h 1.275862 v 1.275862 h -1.275862 z m 2.551725,0 h 1.275862 v 1.275862 h -1.275862 z m 2.551724,0 h 1.275862 v 1.275862 H 30.62069 Z m 1.275862,0 h 1.275862 v 1.275862 h -1.275862 z m 1.275862,0 h 1.275862 v 1.275862 H 33.172414 Z M 0,29.344828 H 1.2758621 V 30.62069 H 0 Z m 7.6551724,0 H 8.9310345 V 30.62069 H 7.6551724 Z m 2.5517246,0 h 1.275862 v 1.275862 h -1.275862 z m 2.551724,0 h 1.275862 v 1.275862 h -1.275862 z m 1.275862,0 h 1.275862 v 1.275862 h -1.275862 z m 5.103448,0 h 1.275862 v 1.275862 h -1.275862 z m 1.275862,0 h 1.275862 v 1.275862 h -1.275862 z m 5.103448,0 h 1.275862 v 1.275862 h -1.275862 z m 5.103449,0 h 1.275862 V 30.62069 H 30.62069 Z m 2.551724,0 h 1.275862 v 1.275862 h -1.275862 z m 2.551724,0 H 37 V 30.62069 H 35.724138 Z M 0,30.62069 h 1.2758621 v 1.275862 H 0 Z m 2.5517241,0 h 1.2758621 v 1.275862 H 2.5517241 Z m 1.2758621,0 h 1.2758621 v 1.275862 H 3.8275862 Z m 1.2758621,0 h 1.275862 v 1.275862 h -1.275862 z m 2.5517241,0 h 1.2758621 v 1.275862 H 7.6551724 Z m 3.8275866,0 h 1.275862 v 1.275862 h -1.275862 z m 5.103448,0 h 1.275862 v 1.275862 h -1.275862 z m 1.275862,0 h 1.275862 v 1.275862 h -1.275862 z m 1.275862,0 h 1.275862 v 1.275862 h -1.275862 z m 1.275862,0 h 1.275862 v 1.275862 h -1.275862 z m 2.551724,0 h 1.275862 v 1.275862 h -1.275862 z m 1.275862,0 h 1.275862 v 1.275862 h -1.275862 z m 1.275862,0 h 1.275862 v 1.275862 h -1.275862 z m 1.275862,0 h 1.275863 v 1.275862 h -1.275863 z m 1.275863,0 h 1.275862 v 1.275862 h -1.275862 z m 1.275862,0 h 1.275862 v 1.275862 h -1.275862 z m 1.275862,0 h 1.275862 v 1.275862 H 30.62069 Z m 1.275862,0 h 1.275862 v 1.275862 h -1.275862 z m 2.551724,0 h 1.275862 v 1.275862 H 34.448276 Z M 0,31.896552 h 1.2758621 v 1.275862 H 0 Z m 2.5517241,0 h 1.2758621 v 1.275862 H 2.5517241 Z m 1.2758621,0 h 1.2758621 v 1.275862 H 3.8275862 Z m 1.2758621,0 h 1.275862 v 1.275862 h -1.275862 z m 2.5517241,0 h 1.2758621 v 1.275862 H 7.6551724 Z m 3.8275866,0 h 1.275862 v 1.275862 h -1.275862 z m 3.827586,0 h 1.275862 v 1.275862 h -1.275862 z m 1.275862,0 h 1.275862 v 1.275862 h -1.275862 z m 3.827586,0 h 1.275862 v 1.275862 h -1.275862 z m 2.551724,0 h 1.275862 v 1.275862 h -1.275862 z m 2.551724,0 h 1.275862 v 1.275862 h -1.275862 z m 3.827587,0 h 1.275862 v 1.275862 h -1.275862 z m 5.103448,0 h 1.275862 v 1.275862 H 34.448276 Z M 0,33.172414 h 1.2758621 v 1.275862 H 0 Z m 2.5517241,0 h 1.2758621 v 1.275862 H 2.5517241 Z m 1.2758621,0 h 1.2758621 v 1.275862 H 3.8275862 Z m 1.2758621,0 h 1.275862 v 1.275862 h -1.275862 z m 2.5517241,0 h 1.2758621 v 1.275862 H 7.6551724 Z m 3.8275866,0 h 1.275862 v 1.275862 h -1.275862 z m 5.103448,0 h 1.275862 v 1.275862 h -1.275862 z m 1.275862,0 h 1.275862 v 1.275862 h -1.275862 z m 1.275862,0 h 1.275862 v 1.275862 h -1.275862 z m 2.551724,0 h 1.275862 v 1.275862 h -1.275862 z m 2.551724,0 h 1.275862 v 1.275862 h -1.275862 z m 2.551724,0 h 1.275863 v 1.275862 h -1.275863 z m 1.275863,0 h 1.275862 v 1.275862 h -1.275862 z m 1.275862,0 h 1.275862 v 1.275862 h -1.275862 z m 3.827586,0 h 1.275862 v 1.275862 h -1.275862 z m 1.275862,0 h 1.275862 v 1.275862 H 34.448276 Z M 0,34.448276 h 1.2758621 v 1.275862 H 0 Z m 7.6551724,0 h 1.2758621 v 1.275862 H 7.6551724 Z m 2.5517246,0 h 1.275862 v 1.275862 h -1.275862 z m 5.103448,0 h 1.275862 v 1.275862 h -1.275862 z m 1.275862,0 h 1.275862 v 1.275862 h -1.275862 z m 1.275862,0 h 1.275862 v 1.275862 h -1.275862 z m 1.275862,0 h 1.275862 v 1.275862 h -1.275862 z m 3.827586,0 h 1.275862 v 1.275862 h -1.275862 z m 5.103449,0 h 1.275862 v 1.275862 h -1.275862 z m 3.827586,0 h 1.275862 v 1.275862 h -1.275862 z m 2.551724,0 h 1.275862 v 1.275862 H 34.448276 Z M 0,35.724138 H 1.2758621 V 37 H 0 Z m 1.2758621,0 h 1.275862 V 37 h -1.275862 z m 1.275862,0 H 3.8275862 V 37 H 2.5517241 Z m 1.2758621,0 H 5.1034483 V 37 H 3.8275862 Z m 1.2758621,0 h 1.275862 V 37 h -1.275862 z m 1.275862,0 H 7.6551724 V 37 H 6.3793103 Z m 1.2758621,0 H 8.9310345 V 37 H 7.6551724 Z m 2.5517246,0 h 1.275862 V 37 h -1.275862 z m 1.275862,0 h 1.275862 V 37 h -1.275862 z m 3.827586,0 h 1.275862 V 37 h -1.275862 z m 2.551724,0 h 1.275862 V 37 h -1.275862 z m 1.275862,0 h 1.275862 V 37 h -1.275862 z m 1.275862,0 h 1.275862 V 37 h -1.275862 z m 3.827586,0 h 1.275862 V 37 h -1.275862 z m 1.275862,0 h 1.275862 V 37 h -1.275862 z m 1.275862,0 h 1.275863 V 37 h -1.275863 z m 1.275863,0 h 1.275862 V 37 h -1.275862 z m 2.551724,0 h 1.275862 V 37 H 30.62069 Z m 1.275862,0 h 1.275862 V 37 h -1.275862 z m 1.275862,0 h 1.275862 V 37 h -1.275862 z"
     id="path2"
     style="stroke-width:1.27586" />
</svg>
