<?xml version="1.0" encoding="UTF-8" standalone="no"?>
<svg
   width="24"
   height="24"
   viewBox="0 0 24 24"
   fill="none"
   version="1.1"
   id="svg4"
   sodipodi:docname="Settings icon.svg"
   inkscape:export-filename="C:\Users\luisa\Proyectos\Programas\Stereux\Properties\Icons\Settings icon.png"
   inkscape:export-xdpi="128"
   inkscape:export-ydpi="128"
   inkscape:version="1.1.1 (3bf5ae0d25, 2021-09-20)"
   xmlns:inkscape="http://www.inkscape.org/namespaces/inkscape"
   xmlns:sodipodi="http://sodipodi.sourceforge.net/DTD/sodipodi-0.dtd"
   xmlns="http://www.w3.org/2000/svg"
   xmlns:svg="http://www.w3.org/2000/svg">
  <defs
     id="defs8" />
  <sodipodi:namedview
     id="namedview6"
     pagecolor="#505050"
     bordercolor="#eeeeee"
     borderopacity="1"
     inkscape:pageshadow="0"
     inkscape:pageopacity="0"
     inkscape:pagecheckerboard="0"
     showgrid="false"
     inkscape:zoom="5.6568543"
     inkscape:cx="-8.3085047"
     inkscape:cy="20.948038"
     inkscape:window-width="1366"
     inkscape:window-height="705"
     inkscape:window-x="-8"
     inkscape:window-y="-8"
     inkscape:window-maximized="1"
     inkscape:current-layer="svg4" />
  <path
     fill-rule="evenodd"
     clip-rule="evenodd"
     d="M 16.97669,3.7028419 C 16.650569,3.518058 16.312579,3.3508731 15.96408,3.2026188 L 15.45487,0.94329457 C 15.330628,0.39255353 14.828093,0 14.247181,0 H 9.7469944 C 9.1659954,0 8.6634116,0.39255353 8.5392677,0.94329457 L 8.0299586,3.2026188 C 7.7015372,3.3423314 7.3824248,3.4988754 7.0738082,3.671099 6.7498373,3.8511083 6.4354225,4.0494725 6.1323937,4.2657116 L 3.8614451,3.564065 C 3.307866,3.3930172 2.7062464,3.6191056 2.4157655,4.1073442 L 0.16567244,7.8893039 c -0.29048095,0.4882266 -0.1914452,1.1068805 0.23797755,1.4865857 L 2.1653018,10.933604 c -0.040487,0.35426 -0.060341,0.70912 -0.059995,1.06302 -3.461e-4,0.353901 0.019508,0.708761 0.059995,1.063142 l -1.76165181,1.557641 c -0.42942275,0.379693 -0.5284585,0.998359 -0.23797755,1.486622 l 2.25009306,3.781936 c 0.2904809,0.488142 0.8921005,0.714279 1.4456796,0.543207 l 2.2709362,-0.701563 c 0.3063915,0.218579 0.6244284,0.418922 0.9522069,0.600551 0.3052665,0.169872 0.6207691,0.324389 0.9453828,0.46247 l 0.5092967,2.259325 c 0.1241439,0.550764 0.6267277,0.943294 1.2077267,0.943294 h 4.5001866 c 0.580912,0 1.083447,-0.39253 1.207689,-0.943294 l 0.50921,-2.259325 c 0.344542,-0.146598 0.678824,-0.311673 1.001485,-0.493901 0.307948,-0.173231 0.60712,-0.363018 0.895907,-0.56912 l 2.270986,0.701563 c 0.553592,0.171072 1.155149,-0.05507 1.445667,-0.543207 l 2.250093,-3.781936 c 0.290394,-0.488263 0.191371,-1.106929 -0.237977,-1.486622 l -1.761652,-1.557641 c 0.04054,-0.354861 0.06033,-0.710201 0.05995,-1.064461 2.47e-4,-0.353421 -0.01953,-0.707921 -0.05995,-1.061701 l 1.761652,-1.5577144 c 0.429348,-0.3797052 0.528371,-0.998347 0.237977,-1.4865857 L 21.578125,4.1073442 C 21.287607,3.6191176 20.68605,3.3930172 20.132458,3.564065 L 17.861472,4.2657116 C 17.576147,4.0621049 17.280683,3.8743578 16.97669,3.7028419 Z M 11.996964,16.795275 c 2.730994,0 4.944988,-2.148477 4.944988,-4.798651 0,-2.6502222 -2.213994,-4.7986495 -4.944988,-4.7986495 -2.7310427,0 -4.944988,2.1484273 -4.944988,4.7986495 0,2.650174 2.2139453,4.798651 4.944988,4.798651 z"
     fill="#000000"
     id="path2"
     style="stroke-width:1.21781" />
</svg>
